<?xml version="1.0" standalone="no"?>
<!DOCTYPE svg PUBLIC "-//W3C//DTD SVG 20010904//EN"
 "http://www.w3.org/TR/2001/REC-SVG-20010904/DTD/svg10.dtd">
<svg version="1.0" xmlns="http://www.w3.org/2000/svg"
 width="700.000000pt" height="700.000000pt" viewBox="0 0 700.000000 700.000000"
 preserveAspectRatio="xMidYMid meet">
<metadata>
Created by potrace 1.14, written by Peter Selinger 2001-2017
</metadata>
<g transform="translate(0.000000,700.000000) scale(0.100000,-0.100000)"
fill="#000000" stroke="none">
<path d="M161 5536 c-48 -17 -108 -71 -134 -119 l-22 -42 -3 -2085 c-2 -1483
0 -2100 8 -2136 15 -69 59 -127 122 -158 l52 -26 1171 0 1172 0 6 -188 c4
-103 7 -267 7 -364 l0 -178 -315 0 c-349 0 -358 -1 -395 -63 -11 -18 -20 -43
-20 -57 0 -14 9 -39 20 -57 41 -68 -88 -63 1673 -63 l1594 0 34 23 c48 32 67
89 46 139 -9 21 -30 46 -49 58 -31 19 -50 20 -350 20 l-318 0 0 178 c0 97 3
261 7 364 l6 188 1172 0 1171 0 51 25 c28 15 63 41 78 60 59 78 55 -69 55
2203 0 1581 -3 2094 -12 2124 -6 22 -31 62 -55 88 -78 87 55 80 -1604 80
l-1467 0 5 -937 c5 -869 7 -941 23 -973 29 -58 68 -88 193 -152 203 -103 352
-227 483 -401 160 -212 264 -509 264 -754 l0 -72 93 44 c50 24 102 56 115 70
l22 26 0 787 0 787 -39 16 c-22 9 -47 29 -57 44 -22 34 -22 103 0 137 37 57
49 58 468 58 353 0 386 -1 418 -18 95 -51 85 -187 -15 -223 l-35 -13 0 -787
c0 -761 1 -787 19 -811 11 -13 75 -52 143 -86 227 -114 385 -259 514 -472 38
-63 39 -69 42 -167 3 -78 0 -109 -13 -136 -20 -42 -68 -70 -113 -65 -31 3 -35
7 -56 68 -62 175 -205 378 -284 400 -42 11 -1226 13 -1255 1 -11 -4 -33 -44
-56 -103 -56 -141 -163 -324 -216 -368 -11 -9 -54 -11 -176 -5 l-162 7 46 39
c151 130 287 370 333 589 31 151 20 394 -22 500 -29 73 32 69 -1039 73 -1039
5 -1003 7 -1039 -47 -39 -61 -63 -281 -47 -426 30 -255 135 -475 313 -653 l77
-77 -142 0 c-78 1 -545 -1 -1038 -4 -493 -3 -899 -3 -902 0 -3 4 148 184 335
403 187 218 349 414 359 436 18 38 19 93 19 1107 l0 1066 -32 11 c-45 16 -67
38 -78 82 -14 52 5 107 49 136 34 23 34 23 430 23 380 0 397 -1 429 -20 87
-54 73 -188 -23 -220 l-35 -12 1 -976 c0 -859 2 -969 14 -913 35 158 110 335
203 476 63 95 258 288 357 353 44 29 126 76 183 103 112 56 160 101 180 168 9
28 12 289 12 960 l0 921 -1467 -1 c-1127 0 -1476 -3 -1502 -13z"/>
</g>
</svg>
